<!DOCTYPE svg PUBLIC "-//W3C//DTD SVG 20010904//EN" "http://www.w3.org/TR/2001/REC-SVG-20010904/DTD/svg10.dtd">
<svg version="1.0" xmlns="http://www.w3.org/2000/svg" width="520px" height="505px" viewBox="0 0 5200 5050" preserveAspectRatio="xMidYMid meet">
<g id="layer1" fill="#fce9d3" stroke="none">
 <path d="M2003 4943 c9 -2 23 -2 30 0 6 3 -1 5 -18 5 -16 0 -22 -2 -12 -5z"/>
 <path d="M3043 4943 c9 -2 23 -2 30 0 6 3 -1 5 -18 5 -16 0 -22 -2 -12 -5z"/>
 <path d="M1813 4933 c9 -2 25 -2 35 0 9 3 1 5 -18 5 -19 0 -27 -2 -17 -5z"/>
 <path d="M3223 4933 c9 -2 25 -2 35 0 9 3 1 5 -18 5 -19 0 -27 -2 -17 -5z"/>
 <path d="M1688 4923 c7 -3 16 -2 19 1 4 3 -2 6 -13 5 -11 0 -14 -3 -6 -6z"/>
 <path d="M3378 4923 c7 -3 16 -2 19 1 4 3 -2 6 -13 5 -11 0 -14 -3 -6 -6z"/>
 <path d="M1578 4913 c6 -2 18 -2 25 0 6 3 1 5 -13 5 -14 0 -19 -2 -12 -5z"/>
 <path d="M3483 4913 c9 -2 23 -2 30 0 6 3 -1 5 -18 5 -16 0 -22 -2 -12 -5z"/>
 <path d="M3588 4903 c7 -3 16 -2 19 1 4 3 -2 6 -13 5 -11 0 -14 -3 -6 -6z"/>
 <path d="M1418 4893 c7 -3 16 -2 19 1 4 3 -2 6 -13 5 -11 0 -14 -3 -6 -6z"/>
 <path d="M3668 4893 c6 -2 18 -2 25 0 6 3 1 5 -13 5 -14 0 -19 -2 -12 -5z"/>
 <path d="M1298 4873 c7 -3 16 -2 19 1 4 3 -2 6 -13 5 -11 0 -14 -3 -6 -6z"/>
 <path d="M3818 4873 c7 -3 16 -2 19 1 4 3 -2 6 -13 5 -11 0 -14 -3 -6 -6z"/>
 <path d="M3938 4853 c7 -3 16 -2 19 1 4 3 -2 6 -13 5 -11 0 -14 -3 -6 -6z"/>
 <path d="M4048 4833 c7 -3 16 -2 19 1 4 3 -2 6 -13 5 -11 0 -14 -3 -6 -6z"/>
 <path d="M4580 4676 c0 -2 7 -7 16 -10 8 -3 12 -2 9 4 -6 10 -25 14 -25 6z"/>
 <path d="M4620 4656 c0 -2 7 -7 16 -10 8 -3 12 -2 9 4 -6 10 -25 14 -25 6z"/>
 <path d="M564 4634 c-18 -14 -18 -15 4 -4 12 6 22 13 22 15 0 8 -5 6 -26 -11z"/>
 <path d="M369 4503 c-13 -16 -12 -17 4 -4 9 7 17 15 17 17 0 8 -8 3 -21 -13z"/>
 <path d="M289 4433 l-24 -28 28 24 c25 23 32 31 24 31 -2 0 -14 -12 -28 -27z"/>
 <path d="M126 4205 c-9 -26 -7 -32 5 -12 6 10 9 21 6 23 -2 3 -7 -2 -11 -11z"/>
 <path d="M5041 1023 c-10 -26 -10 -27 4 -9 8 11 15 23 15 28 0 15 -7 8 -19 -19z"/>
 <path d="M4899 823 c-13 -16 -12 -17 4 -4 9 7 17 15 17 17 0 8 -8 3 -21 -13z"/>
 <path d="M300 795 c13 -14 26 -25 28 -25 3 0 -5 11 -18 25 -13 14 -26 25 -28 25 -3 0 5 -11 18 -25z"/>
 <path d="M4779 703 c-13 -16 -12 -17 4 -4 16 13 21 21 13 21 -2 0 -10 -8 -17 -17z"/>
 <path d="M670 526 c0 -3 9 -10 20 -16 11 -6 20 -8 20 -6 0 3 -9 10 -20 16 -11 6 -20 8 -20 6z"/>
 <path d="M790 456 c0 -2 7 -7 16 -10 8 -3 12 -2 9 4 -6 10 -25 14 -25 6z"/>
 <path d="M4390 440 c-9 -6 -10 -10 -3 -10 6 0 15 5 18 10 8 12 4 12 -15 0z"/>
 <path d="M830 436 c0 -2 7 -7 16 -10 8 -3 12 -2 9 4 -6 10 -25 14 -25 6z"/>
 <path d="M4350 420 c-9 -6 -10 -10 -3 -10 6 0 15 5 18 10 8 12 4 12 -15 0z"/>
 <path d="M1488 213 c7 -3 16 -2 19 1 4 3 -2 6 -13 5 -11 0 -14 -3 -6 -6z"/>
 <path d="M1688 173 c7 -3 16 -2 19 1 4 3 -2 6 -13 5 -11 0 -14 -3 -6 -6z"/>
 <path d="M3538 173 c7 -3 16 -2 19 1 4 3 -2 6 -13 5 -11 0 -14 -3 -6 -6z"/>
 <path d="M1808 153 c6 -2 18 -2 25 0 6 3 1 5 -13 5 -14 0 -19 -2 -12 -5z"/>
 <path d="M3408 153 c7 -3 16 -2 19 1 4 3 -2 6 -13 5 -11 0 -14 -3 -6 -6z"/>
 <path d="M1958 133 c6 -2 18 -2 25 0 6 3 1 5 -13 5 -14 0 -19 -2 -12 -5z"/>
 <path d="M3258 133 c6 -2 18 -2 25 0 6 3 1 5 -13 5 -14 0 -19 -2 -12 -5z"/>
 <path d="M2048 123 c7 -3 16 -2 19 1 4 3 -2 6 -13 5 -11 0 -14 -3 -6 -6z"/>
 <path d="M3178 123 c7 -3 16 -2 19 1 4 3 -2 6 -13 5 -11 0 -14 -3 -6 -6z"/>
 <path d="M2163 113 c9 -2 23 -2 30 0 6 3 -1 5 -18 5 -16 0 -22 -2 -12 -5z"/>
 <path d="M3053 113 c9 -2 23 -2 30 0 6 3 -1 5 -18 5 -16 0 -22 -2 -12 -5z"/>
 <path d="M2313 103 c9 -2 23 -2 30 0 6 3 -1 5 -18 5 -16 0 -22 -2 -12 -5z"/>
 <path d="M2903 103 c9 -2 23 -2 30 0 6 3 -1 5 -18 5 -16 0 -22 -2 -12 -5z"/>
 </g>
<g id="layer2" fill="#fce0e1" stroke="none">
 <path d="M5060 4240 c6 -11 13 -20 16 -20 2 0 0 9 -6 20 -6 11 -13 20 -16 20 -2 0 0 -9 6 -20z"/>
 <path d="M388 3933 c7 -3 16 -2 19 1 4 3 -2 6 -13 5 -11 0 -14 -3 -6 -6z"/>
 <path d="M1338 3933 c7 -3 16 -2 19 1 4 3 -2 6 -13 5 -11 0 -14 -3 -6 -6z"/>
 <path d="M4705 3920 c-3 -6 1 -7 9 -4 18 7 21 14 7 14 -6 0 -13 -4 -16 -10z"/>
 <path d="M291 3894 c-12 -15 -21 -32 -21 -38 0 -6 6 -2 12 9 6 11 18 28 26 38 8 9 12 17 9 17 -3 0 -15 -12 -26 -26z"/>
 <path d="M2071 3917 c2 -1 15 -11 29 -22 l25 -20 -19 23 c-11 12 -24 22 -29 22 -6 0 -8 -1 -6 -3z"/>
 <path d="M2359 3903 c-13 -16 -12 -17 4 -4 9 7 17 15 17 17 0 8 -8 3 -21 -13z"/>
 <path d="M2510 3916 c0 -2 7 -7 16 -10 8 -3 12 -2 9 4 -6 10 -25 14 -25 6z"/>
 <path d="M830 3906 c0 -3 9 -10 20 -16 11 -6 20 -8 20 -6 0 3 -9 10 -20 16 -11 6 -20 8 -20 6z"/>
 <path d="M3290 3906 c0 -2 7 -7 16 -10 8 -3 12 -2 9 4 -6 10 -25 14 -25 6z"/>
 <path d="M2565 3880 c10 -11 20 -20 23 -20 3 0 -3 9 -13 20 -10 11 -20 20 -23 20 -3 0 3 -9 13 -20z"/>
 <path d="M1154 3874 c-18 -14 -18 -15 4 -4 12 6 22 13 22 15 0 8 -5 6 -26 -11z"/>
 <path d="M2804 3874 c-18 -14 -18 -15 4 -4 12 6 22 13 22 15 0 8 -5 6 -26 -11z"/>
 <path d="M1630 3876 c0 -2 7 -7 16 -10 8 -3 12 -2 9 4 -6 10 -25 14 -25 6z"/>
 <path d="M1680 3846 c0 -2 8 -10 18 -17 15 -13 16 -12 3 4 -13 16 -21 21 -21 13z"/>
 <path d="M2596 3783 c-6 -14 -5 -15 5 -6 7 7 10 15 7 18 -3 3 -9 -2 -12 -12z"/>
 <path d="M4889 3733 c-13 -16 -12 -17 4 -4 16 13 21 21 13 21 -2 0 -10 -8 -17 -17z"/>
 <path d="M665 3720 c10 -11 20 -20 23 -20 3 0 -3 9 -13 20 -10 11 -20 20 -23 20 -3 0 3 -9 13 -20z"/>
 <path d="M1042 3700 c0 -14 2 -19 5 -12 2 6 2 18 0 25 -3 6 -5 1 -5 -13z"/>
 <path d="M1388 3713 c12 -2 30 -2 40 0 9 3 -1 5 -23 4 -22 0 -30 -2 -17 -4z"/>
 <path d="M3830 3713 c0 -5 35 -7 77 -5 137 5 151 9 36 10 -62 1 -113 -1 -113 -5z"/>
 <path d="M1462 3694 c16 -18 18 -52 21 -305 l2 -284 3 286 c2 286 2 286 -20 305 -23 19 -23 19 -6 -2z"/>
 <path d="M4849 3683 c-13 -16 -12 -17 4 -4 9 7 17 15 17 17 0 8 -8 3 -21 -13z"/>
 <path d="M2509 3663 c-13 -16 -12 -17 4 -4 16 13 21 21 13 21 -2 0 -10 -8 -17 -17z"/>
 <path d="M2949 3663 c-13 -16 -12 -17 4 -4 16 13 21 21 13 21 -2 0 -10 -8 -17 -17z"/>
 <path d="M971 3634 c0 -11 3 -14 6 -6 3 7 2 16 -1 19 -3 4 -6 -2 -5 -13z"/>
 <path d="M3192 3630 c0 -14 2 -19 5 -12 2 6 2 18 0 25 -3 6 -5 1 -5 -13z"/>
 <path d="M3463 3555 c0 -44 2 -61 4 -37 2 23 2 59 0 80 -2 20 -4 1 -4 -43z"/>
 <path d="M4450 3604 c0 -8 5 -12 10 -9 6 4 8 11 5 16 -9 14 -15 11 -15 -7z"/>
 <path d="M2430 3565 c-11 -13 -11 -18 0 -28 10 -9 11 -9 6 1 -4 7 -2 19 4 27 7 8 10 15 7 15 -2 0 -10 -7 -17 -15z"/>
 <path d="M530 3558 c0 -4 24 -7 53 -7 54 1 49 5 -15 11 -21 2 -38 0 -38 -4z"/>
 <path d="M2603 3485 c0 -22 2 -30 4 -17 2 12 2 30 0 40 -3 9 -5 -1 -4 -23z"/>
 <path d="M2872 3485 c0 -16 2 -22 5 -12 2 9 2 23 0 30 -3 6 -5 -1 -5 -18z"/>
 <path d="M1044 3305 c0 -110 2 -156 3 -103 2 53 2 143 0 200 -1 57 -3 13 -3 -97z"/>
 <path d="M3050 3441 c0 -6 4 -13 10 -16 6 -3 7 1 4 9 -7 18 -14 21 -14 7z"/>
 <path d="M4066 3413 c-6 -14 -5 -15 5 -6 7 7 10 15 7 18 -3 3 -9 -2 -12 -12z"/>
 <path d="M2143 3413 c9 -2 23 -2 30 0 6 3 -1 5 -18 5 -16 0 -22 -2 -12 -5z"/>
 <path d="M4508 3413 c6 -2 18 -2 25 0 6 3 1 5 -13 5 -14 0 -19 -2 -12 -5z"/>
 <path d="M4575 3390 c10 -11 20 -20 23 -20 3 0 -3 9 -13 20 -10 11 -20 20 -23 20 -3 0 3 -9 13 -20z"/>
 <path d="M3830 3305 c0 -36 3 -65 8 -65 4 0 5 27 4 60 l-4 59 89 4 88 3 -92 2 -93 2 0 -65z"/>
 <path d="M2282 3315 c0 -16 2 -22 5 -12 2 9 2 23 0 30 -3 6 -5 -1 -5 -18z"/>
 <path d="M2552 3290 c0 -14 2 -19 5 -12 2 6 2 18 0 25 -3 6 -5 1 -5 -13z"/>
 <path d="M2959 3291 c13 -12 28 -21 34 -21 12 0 11 0 -28 24 l-30 17 24 -20z"/>
 <path d="M942 3265 c0 -16 2 -22 5 -12 2 9 2 23 0 30 -3 6 -5 -1 -5 -18z"/>
 <path d="M2660 3251 c0 -6 4 -13 10 -16 6 -3 7 1 4 9 -7 18 -14 21 -14 7z"/>
 <path d="M3093 3253 c9 -2 25 -2 35 0 9 3 1 5 -18 5 -19 0 -27 -2 -17 -5z"/>
 <path d="M530 3219 c0 -5 9 -9 20 -9 11 0 20 2 20 4 0 2 -9 6 -20 9 -11 3 -20 1 -20 -4z"/>
 <path d="M4096 3187 c3 -10 9 -15 12 -12 3 3 0 11 -7 18 -10 9 -11 8 -5 -6z"/>
 <path d="M2730 3155 c13 -14 26 -25 28 -25 3 0 -5 11 -18 25 -13 14 -26 25 -28 25 -3 0 5 -11 18 -25z"/>
 <path d="M1861 3124 c0 -11 3 -14 6 -6 3 7 2 16 -1 19 -3 4 -6 -2 -5 -13z"/>
 <path d="M4809 3123 c-13 -16 -12 -17 4 -4 16 13 21 21 13 21 -2 0 -10 -8 -17 -17z"/>
 <path d="M1490 3091 c0 -6 4 -13 10 -16 6 -3 7 1 4 9 -7 18 -14 21 -14 7z"/>
 <path d="M2380 3050 c-9 -6 -10 -10 -3 -10 6 0 15 5 18 10 8 12 4 12 -15 0z"/>
 <path d="M4237 3039 c7 -7 15 -10 18 -7 3 3 -2 9 -12 12 -14 6 -15 5 -6 -5z"/>
 <path d="M728 3033 c7 -3 16 -2 19 1 4 3 -2 6 -13 5 -11 0 -14 -3 -6 -6z"/>
 <path d="M3228 3033 c7 -3 16 -2 19 1 4 3 -2 6 -13 5 -11 0 -14 -3 -6 -6z"/>
 <path d="M1158 3023 c7 -3 16 -2 19 1 4 3 -2 6 -13 5 -11 0 -14 -3 -6 -6z"/>
 <path d="M3005 3020 c3 -5 14 -10 23 -10 15 0 15 2 2 10 -20 13 -33 13 -25 0z"/>
 <path d="M3150 3020 c-9 -6 -10 -10 -3 -10 6 0 15 5 18 10 8 12 4 12 -15 0z"/>
 <path d="M1808 2803 c7 -3 16 -2 19 1 4 3 -2 6 -13 5 -11 0 -14 -3 -6 -6z"/>
 <path d="M1848 2803 c7 -3 16 -2 19 1 4 3 -2 6 -13 5 -11 0 -14 -3 -6 -6z"/>
 <path d="M2428 2803 c7 -3 16 -2 19 1 4 3 -2 6 -13 5 -11 0 -14 -3 -6 -6z"/>
 <path d="M2468 2803 c7 -3 16 -2 19 1 4 3 -2 6 -13 5 -11 0 -14 -3 -6 -6z"/>
 <path d="M3253 2803 c9 -2 23 -2 30 0 6 3 -1 5 -18 5 -16 0 -22 -2 -12 -5z"/>
 <path d="M1198 2784 c-39 -21 -35 -28 5 -8 37 19 44 24 31 24 -5 -1 -21 -8 -36 -16z"/>
 <path d="M1931 2786 c2 -2 15 -9 29 -15 24 -11 24 -11 6 3 -16 13 -49 24 -35 12z"/>
 <path d="M355 2770 c-3 -6 1 -7 9 -4 18 7 21 14 7 14 -6 0 -13 -4 -16 -10z"/>
 <path d="M1380 2776 c0 -2 7 -7 16 -10 8 -3 12 -2 9 4 -6 10 -25 14 -25 6z"/>
 <path d="M1695 2770 c-3 -6 1 -7 9 -4 18 7 21 14 7 14 -6 0 -13 -4 -16 -10z"/>
 <path d="M2570 2776 c0 -2 7 -7 16 -10 8 -3 12 -2 9 4 -6 10 -25 14 -25 6z"/>
 <path d="M4015 2770 c-3 -6 1 -7 9 -4 18 7 21 14 7 14 -6 0 -13 -4 -16 -10z"/>
 <path d="M4650 2766 c0 -2 7 -7 16 -10 8 -3 12 -2 9 4 -6 10 -25 14 -25 6z"/>
 <path d="M1440 2735 c13 -14 26 -25 28 -25 3 0 -5 11 -18 25 -13 14 -26 25 -28 25 -3 0 5 -11 18 -25z"/>
 <path d="M1645 2719 c-4 -6 -5 -12 -2 -15 2 -3 7 2 10 11 7 17 1 20 -8 4z"/>
 <path d="M1476 2687 c3 -10 9 -15 12 -12 3 3 0 11 -7 18 -10 9 -11 8 -5 -6z"/>
 <path d="M1079 2673 c-13 -16 -12 -17 4 -4 9 7 17 15 17 17 0 8 -8 3 -21 -13z"/>
 <path d="M3799 2633 c-13 -16 -12 -17 4 -4 16 13 21 21 13 21 -2 0 -10 -8 -17 -17z"/>
 <path d="M1502 2605 c0 -16 2 -22 5 -12 2 9 2 23 0 30 -3 6 -5 -1 -5 -18z"/>
 <path d="M984 2568 l-19 -23 23 19 c21 18 27 26 19 26 -2 0 -12 -10 -23 -22z"/>
 <path d="M889 2463 c-13 -16 -12 -17 4 -4 9 7 17 15 17 17 0 8 -8 3 -21 -13z"/>
 <path d="M4440 2440 c8 -5 20 -10 25 -10 6 0 3 5 -5 10 -8 5 -19 10 -25 10 -5 0 -3 -5 5 -10z"/>
 <path d="M1364 2398 l-19 -23 23 19 c21 18 27 26 19 26 -2 0 -12 -10 -23 -22z"/>
 <path d="M2819 2383 c-13 -16 -12 -17 4 -4 16 13 21 21 13 21 -2 0 -10 -8 -17 -17z"/>
 <path d="M4499 2342 c-3 -20 -2 -29 4 -23 5 5 7 19 5 32 -3 20 -5 19 -9 -9z"/>
 <path d="M779 2343 c-13 -16 -12 -17 4 -4 16 13 21 21 13 21 -2 0 -10 -8 -17 -17z"/>
 <path d="M2779 2333 c-13 -16 -12 -17 4 -4 9 7 17 15 17 17 0 8 -8 3 -21 -13z"/>
 <path d="M4438 2313 c7 -3 16 -2 19 1 4 3 -2 6 -13 5 -11 0 -14 -3 -6 -6z"/>
 <path d="M4344 2294 c-18 -14 -18 -14 6 -3 31 14 36 19 24 19 -6 0 -19 -7 -30 -16z"/>
 <path d="M1259 2283 c-13 -16 -12 -17 4 -4 9 7 17 15 17 17 0 8 -8 3 -21 -13z"/>
 <path d="M1149 2163 l-24 -28 28 24 c25 23 32 31 24 31 -2 0 -14 -12 -28 -27z"/>
 <path d="M4011 2084 c0 -11 3 -14 6 -6 3 7 2 16 -1 19 -3 4 -6 -2 -5 -13z"/>
 <path d="M1150 2066 c0 -2 8 -10 18 -17 15 -13 16 -12 3 4 -13 16 -21 21 -21 13z"/>
 <path d="M690 1986 c0 -2 7 -7 16 -10 8 -3 12 -2 9 4 -6 10 -25 14 -25 6z"/>
 <path d="M1280 1926 c0 -2 8 -10 18 -17 15 -13 16 -12 3 4 -13 16 -21 21 -21 13z"/>
 <path d="M810 1866 c0 -2 8 -10 18 -17 15 -13 16 -12 3 4 -13 16 -21 21 -21 13z"/>
 <path d="M3650 1854 c0 -6 7 -19 16 -30 14 -18 14 -18 3 6 -14 31 -19 36 -19 24z"/>
 <path d="M4126 1839 c6 -11 64 -42 69 -37 2 2 -14 13 -36 25 -21 12 -37 17 -33 12z"/>
 <path d="M4800 1816 c0 -2 8 -10 18 -17 15 -13 16 -12 3 4 -13 16 -21 21 -21 13z"/>
 <path d="M1400 1796 c0 -2 8 -10 18 -17 15 -13 16 -12 3 4 -13 16 -21 21 -21 13z"/>
 <path d="M4338 1773 c7 -3 16 -2 19 1 4 3 -2 6 -13 5 -11 0 -14 -3 -6 -6z"/>
 <path d="M4388 1773 c6 -2 18 -2 25 0 6 3 1 5 -13 5 -14 0 -19 -2 -12 -5z"/>
 <path d="M945 1720 c10 -11 20 -20 23 -20 3 0 -3 9 -13 20 -10 11 -20 20 -23 20 -3 0 3 -9 13 -20z"/>
 <path d="M1471 1710 c14 -31 19 -36 19 -24 0 6 -7 19 -16 30 -14 18 -14 18 -3 -6z"/>
 <path d="M3770 1657 c0 -2 15 -16 33 -33 l32 -29 -29 33 c-28 30 -36 37 -36 29z"/>
 <path d="M4856 1623 c-6 -14 -5 -15 5 -6 7 7 10 15 7 18 -3 3 -9 -2 -12 -12z"/>
 <path d="M1065 1590 c10 -11 20 -20 23 -20 3 0 -3 9 -13 20 -10 11 -20 20 -23 20 -3 0 3 -9 13 -20z"/>
 <path d="M1476 1563 c-6 -14 -5 -15 5 -6 7 7 10 15 7 18 -3 3 -9 -2 -12 -12z"/>
 <path d="M3070 1561 c0 -6 4 -13 10 -16 6 -3 7 1 4 9 -7 18 -14 21 -14 7z"/>
 <path d="M300 1551 c0 -6 4 -13 10 -16 6 -3 7 1 4 9 -7 18 -14 21 -14 7z"/>
 <path d="M2260 1551 c0 -6 4 -13 10 -16 6 -3 7 1 4 9 -7 18 -14 21 -14 7z"/>
 <path d="M2619 1513 c-13 -16 -12 -17 4 -4 16 13 21 21 13 21 -2 0 -10 -8 -17 -17z"/>
 <path d="M1419 1493 c-13 -16 -12 -17 4 -4 9 7 17 15 17 17 0 8 -8 3 -21 -13z"/>
 <path d="M3990 1490 c8 -5 20 -10 25 -10 6 0 3 5 -5 10 -8 5 -19 10 -25 10 -5 0 -3 -5 5 -10z"/>
 <path d="M1197 1469 c7 -7 15 -10 18 -7 3 3 -2 9 -12 12 -14 6 -15 5 -6 -5z"/>
 <path d="M1370 1470 c-8 -5 -10 -10 -5 -10 6 0 17 5 25 10 8 5 11 10 5 10 -5 0 -17 -5 -25 -10z"/>
 <path d="M1720 1470 c8 -5 20 -10 25 -10 6 0 3 5 -5 10 -8 5 -19 10 -25 10 -5 0 -3 -5 5 -10z"/>
 <path d="M1930 1470 c-8 -5 -10 -10 -5 -10 6 0 17 5 25 10 8 5 11 10 5 10 -5 0 -17 -5 -25 -10z"/>
 <path d="M4518 1433 c7 -3 16 -2 19 1 4 3 -2 6 -13 5 -11 0 -14 -3 -6 -6z"/>
 <path d="M4247 1419 c7 -7 15 -10 18 -7 3 3 -2 9 -12 12 -14 6 -15 5 -6 -5z"/>
 <path d="M4410 1420 c-13 -8 -13 -10 2 -10 9 0 20 5 23 10 8 13 -5 13 -25 0z"/>
 <path d="M747 479 c7 -7 15 -10 18 -7 3 3 -2 9 -12 12 -14 6 -15 5 -6 -5z"/>
 <path d="M4430 460 c-9 -6 -10 -10 -3 -10 6 0 15 5 18 10 8 12 4 12 -15 0z"/>
 <path d="M907 399 c7 -7 15 -10 18 -7 3 3 -2 9 -12 12 -14 6 -15 5 -6 -5z"/>
 </g>
<g id="layer3" fill="#fffefe" stroke="none">
 <path d="M1885 4994 c-688 -38 -1186 -178 -1511 -424 -110 -84 -168 -144 -233 -245 -103 -157 -117 -261 -41 -300 27 -14 266 -16 2491 -15 2229 0 2464 2 2492 16 50 25 67 53 67 111 0 121 -166 349 -345 472 -283 196 -647 294 -1365 367 -122 13 -299 17 -825 19 -368 1 -697 1 -730 -1z m1370 -57 c44 -4 107 -9 140 -13 33 -3 69 -6 80 -5 17 0 74 -6 290 -34 154 -20 446 -74 505 -94 14 -5 45 -14 70 -21 25 -6 53 -16 62 -21 10 -5 23 -9 29 -9 6 0 27 -7 47 -16 21 -9 51 -22 67 -29 164 -72 251 -130 356 -234 65 -66 139 -158 139 -175 0 -3 11 -21 24 -41 26 -38 42 -110 32 -142 -15 -45 73 -43 -2511 -43 -2042 0 -2454 2 -2470 14 -30 22 -9 99 58 209 69 115 207 244 347 325 91 53 271 138 315 148 17 4 35 10 40 14 6 4 46 17 90 29 44 12 94 26 110 31 60 17 264 56 352 66 18 2 50 7 70 9 21 3 58 8 83 10 25 2 70 7 100 10 30 3 109 8 175 11 66 3 122 8 124 10 7 6 1181 -2 1276 -9z"/>
 <path d="M328 3974 c-53 -16 -94 -59 -103 -107 -3 -18 -5 -202 -3 -409 3 -427 0 -408 88 -457 38 -21 58 -25 184 -29 77 -2 174 1 215 6 124 18 216 76 260 165 l21 42 0 -37 c0 -82 46 -140 129 -164 61 -18 104 -14 166 16 80 39 79 37 85 365 l5 290 28 3 27 3 0 -276 c0 -302 3 -320 57 -366 91 -77 256 -53 306 44 l19 37 22 -42 c39 -77 60 -83 301 -83 233 1 260 6 341 68 50 38 111 125 120 172 l6 33 42 -61 c69 -102 162 -161 337 -216 123 -38 368 22 464 116 59 57 59 141 1 209 l-33 38 31 16 c17 8 39 30 48 49 16 33 17 30 20 -145 3 -202 7 -212 83 -256 37 -21 54 -23 215 -26 109 -3 194 0 227 7 50 12 95 42 105 72 3 9 14 3 37 -23 46 -52 96 -61 317 -56 167 3 183 5 235 30 120 55 189 151 197 273 6 89 -14 163 -64 235 l-36 52 29 38 c15 21 49 66 76 100 52 68 61 114 33 169 -37 70 -143 128 -218 118 -56 -8 -82 -28 -163 -135 l-70 -92 -6 58 c-8 78 -33 117 -93 147 -84 42 -193 25 -242 -38 l-20 -25 -15 27 c-31 53 -67 61 -283 61 -155 0 -205 -3 -234 -15 -72 -31 -112 -86 -112 -157 l0 -43 -16 30 c-39 76 -131 140 -245 170 -69 19 -258 19 -326 1 -82 -22 -154 -59 -209 -109 l-51 -46 -21 44 c-24 50 -70 88 -131 110 -55 19 -81 19 -132 -1 -32 -14 -57 -38 -120 -122 l-79 -105 0 65 c0 51 -5 72 -23 99 -64 96 -245 103 -315 12 -22 -30 -27 -48 -30 -109 l-4 -73 -30 59 c-44 89 -136 151 -266 179 -111 23 -259 3 -361 -48 -41 -22 -118 -96 -127 -123 -8 -26 -20 -22 -34 11 -16 39 -83 107 -129 130 -62 32 -136 41 -314 40 -119 0 -186 -5 -219 -15z m439 -49 c65 -11 74 -16 120 -60 67 -65 85 -106 86 -195 0 -68 -3 -80 -31 -124 -17 -27 -48 -61 -68 -75 l-36 -25 24 -21 c13 -11 36 -37 52 -58 26 -33 30 -48 30 -102 0 -53 -5 -70 -33 -113 -33 -52 -79 -88 -140 -109 -20 -7 -107 -12 -223 -13 -179 -1 -191 1 -221 21 -59 41 -57 22 -57 435 0 429 -2 417 75 438 40 12 356 12 422 1z m771 -6 c99 -28 157 -69 192 -138 l28 -56 1 -300 c0 -350 -1 -359 -69 -384 -40 -15 -59 -17 -122 -12 -9 0 -32 15 -50 31 l-33 30 -3 292 c-3 331 -3 328 -76 328 -23 0 -50 -7 -61 -16 -19 -14 -20 -30 -25 -307 -3 -161 -9 -299 -13 -307 -25 -52 -162 -73 -215 -33 -53 39 -53 43 -48 373 3 168 10 321 16 341 10 35 99 129 121 129 6 0 25 7 42 15 18 8 50 18 71 23 54 11 191 6 244 -9z m503 6 c77 -10 83 -24 87 -185 3 -137 4 -138 23 -119 10 10 19 21 19 24 0 10 105 145 112 145 5 0 8 6 8 13 0 7 13 27 29 44 15 17 31 38 34 47 11 29 119 57 133 34 3 -4 12 -8 21 -8 32 0 80 -48 91 -91 10 -41 10 -44 -29 -90 -21 -26 -39 -52 -39 -58 0 -6 -9 -16 -20 -23 -11 -7 -20 -18 -20 -25 0 -7 -6 -16 -13 -20 -7 -4 -21 -21 -31 -36 l-18 -29 35 -31 c73 -68 107 -180 85 -278 -12 -52 -84 -153 -121 -170 -12 -5 -33 -16 -46 -24 -19 -10 -75 -14 -233 -15 -229 -1 -260 6 -272 56 -10 40 -8 767 2 794 10 26 68 59 97 54 11 -2 41 -6 66 -9z m1213 -5 c91 -23 165 -77 192 -140 11 -25 16 -77 17 -187 2 -151 2 -153 -24 -178 -25 -25 -29 -26 -175 -28 -140 -1 -152 0 -181 21 -27 19 -32 29 -35 74 -5 68 14 102 63 117 20 6 46 11 58 11 16 0 21 6 21 28 0 36 -24 57 -72 66 -162 29 -277 -123 -230 -305 14 -55 41 -86 100 -115 56 -28 145 -38 192 -21 39 15 74 29 91 38 9 4 36 6 60 4 68 -7 115 -71 101 -141 -4 -25 -98 -104 -122 -104 -6 0 -24 -7 -39 -15 -16 -8 -46 -16 -67 -19 -22 -2 -39 -5 -39 -6 0 -6 -158 -3 -162 2 -2 5 -14 8 -25 8 -43 0 -116 33 -205 92 -75 49 -144 169 -160 276 -17 114 -4 202 44 301 57 116 153 199 252 217 20 4 43 10 51 15 22 12 236 4 294 -11z m816 5 c27 -9 51 -64 47 -106 -11 -91 -37 -107 -182 -111 l-100 -3 -3 -62 -3 -63 93 0 c105 0 131 -11 154 -65 18 -43 8 -98 -23 -127 -21 -20 -37 -23 -119 -26 l-95 -4 3 -56 3 -57 112 -5 c106 -5 112 -6 132 -32 28 -36 28 -95 -2 -139 l-23 -34 -202 -3 c-160 -2 -209 1 -237 12 -63 27 -65 40 -65 447 0 350 1 362 21 387 41 53 61 57 274 55 107 -1 204 -5 215 -8z m327 -9 c50 -25 56 -47 54 -173 -1 -62 1 -118 4 -123 6 -10 55 32 55 46 0 8 90 125 122 158 15 17 28 34 28 39 0 5 12 22 27 38 38 39 106 41 170 4 76 -45 93 -111 43 -165 -16 -18 -30 -35 -30 -39 0 -3 -16 -23 -35 -44 -18 -20 -46 -53 -61 -73 l-28 -36 41 -34 c64 -53 88 -112 87 -214 -1 -122 -40 -185 -150 -243 -52 -27 -52 -27 -267 -27 l-216 0 -25 33 -26 34 0 376 c0 251 4 384 11 400 26 57 127 79 196 43z m-258 -303 c-1 -83 -2 -94 -12 -72 -29 65 -90 98 -179 99 -32 0 -58 5 -58 10 0 6 33 10 78 10 76 0 82 2 170 49 1 0 2 -43 1 -96z m-1576 -35 l-15 -77 -25 30 -25 29 39 49 c21 27 39 48 40 47 0 0 -6 -36 -14 -78z m497 58 c-14 -8 -36 -33 -49 -56 -19 -34 -22 -52 -19 -96 8 -91 62 -144 155 -152 73 -6 45 -20 -42 -21 -105 -1 -164 46 -173 138 -6 69 4 115 35 152 29 34 55 48 93 48 l25 0 -25 -13z m-2070 -208 c-1 -82 -1 -83 -17 -53 -8 17 -22 38 -30 47 -13 15 -12 20 14 52 15 20 29 36 31 36 1 0 2 -37 2 -82z m3150 -95 l0 -96 -22 21 c-34 31 -72 42 -156 44 l-77 1 75 7 c41 3 84 11 95 17 28 16 62 54 70 81 3 12 8 22 11 22 2 0 4 -44 4 -97z"/>
 <path d="M534 3737 c-3 -8 -4 -49 -2 -93 l3 -79 55 -5 c49 -5 57 -3 84 21 45 40 42 90 -7 135 -30 28 -44 34 -82 34 -29 0 -48 -5 -51 -13z m106 -61 c20 -26 8 -61 -22 -64 -27 -3 -28 -1 -28 37 0 33 3 41 19 41 10 0 24 -7 31 -14z"/>
 <path d="M530 3305 c0 -73 1 -76 27 -86 44 -17 85 -3 111 36 26 41 26 44 8 80 -20 38 -33 45 -93 45 l-53 0 0 -75z m95 -5 c0 -16 -6 -26 -17 -28 -14 -3 -18 3 -18 28 0 25 4 31 18 28 11 -2 17 -12 17 -28z"/>
 <path d="M2158 3413 l-28 -4 0 -100 0 -99 38 0 c49 0 98 24 107 53 30 97 -23 165 -117 150z m61 -67 c20 -24 10 -70 -16 -74 -21 -3 -23 1 -23 42 0 48 16 60 39 32z"/>
 <path d="M4450 3321 c0 -116 3 -120 78 -105 55 11 84 45 84 99 0 54 -40 91 -109 100 l-53 7 0 -101z m98 27 c25 -25 8 -78 -25 -78 -9 0 -13 15 -13 45 0 46 13 58 38 33z"/>
 <path d="M4130 2855 c-266 -56 -449 -219 -534 -476 -70 -209 -46 -465 61 -649 50 -86 161 -196 251 -249 70 -42 219 -99 271 -103 14 -2 -876 -5 -1979 -8 l-2005 -5 -50 -25 c-101 -50 -122 -145 -66 -288 64 -160 147 -269 302 -392 409 -326 907 -501 1684 -592 151 -18 959 -18 1110 0 489 57 838 141 1148 277 209 92 381 210 553 380 188 186 263 316 272 470 4 72 2 83 -19 109 -43 55 -68 59 -374 66 -154 4 -266 7 -250 8 52 3 181 48 251 87 88 49 151 112 160 160 25 134 -72 270 -204 283 -38 3 -65 -3 -142 -34 -90 -36 -101 -38 -205 -39 -100 0 -115 2 -165 27 -90 45 -130 128 -130 267 1 118 38 193 123 249 36 24 50 27 126 27 56 0 95 -5 111 -14 l25 -14 -25 -8 c-14 -4 -42 -10 -63 -14 -21 -3 -53 -20 -74 -38 -126 -111 -82 -333 76 -386 21 -7 112 -11 240 -11 178 0 211 3 246 19 94 43 105 82 105 375 0 227 -1 233 -25 282 -53 107 -179 199 -335 245 -96 28 -367 36 -470 14z m397 -49 c23 -4 55 -13 70 -21 15 -8 35 -15 43 -15 24 0 129 -57 162 -88 16 -15 45 -49 64 -75 l35 -49 2 -241 c3 -352 14 -338 -294 -338 -250 0 -270 5 -309 73 -32 56 -34 138 -5 187 32 54 62 71 135 74 63 2 65 3 68 31 6 50 -6 75 -46 92 -49 22 -65 25 -142 25 -58 0 -87 -7 -130 -32 -8 -5 -24 -13 -35 -18 -35 -15 -60 -49 -106 -141 -45 -92 -25 -284 39 -374 29 -40 137 -106 187 -114 73 -12 174 -5 230 14 78 27 94 33 131 50 38 17 102 10 153 -15 52 -27 91 -96 91 -161 0 -45 -3 -51 -48 -92 -51 -45 -174 -118 -199 -118 -8 0 -23 -5 -34 -10 -10 -6 -40 -13 -66 -16 -53 -7 -85 -11 -93 -14 -6 -2 -185 -2 -185 0 0 2 -11 4 -79 14 -140 20 -330 133 -406 240 -63 88 -103 163 -117 216 -8 30 -18 70 -23 88 -4 18 -7 93 -6 165 2 119 6 141 35 227 18 52 45 114 62 137 16 23 29 44 29 48 0 11 57 73 112 122 27 24 162 93 218 111 19 6 55 14 79 17 25 3 46 7 49 9 6 6 280 -1 329 -8z m541 -1516 c30 -18 32 -23 32 -74 0 -63 -31 -172 -60 -209 -11 -14 -20 -29 -20 -33 0 -19 -94 -129 -192 -225 -100 -98 -225 -198 -294 -235 -16 -8 -42 -24 -59 -34 -44 -28 -164 -86 -247 -119 -16 -6 -38 -16 -50 -21 -116 -52 -497 -150 -678 -175 -19 -2 -78 -11 -130 -19 -207 -32 -370 -41 -750 -41 -380 0 -543 9 -750 41 -52 8 -111 17 -130 19 -52 8 -237 44 -302 61 -32 8 -86 21 -120 29 -106 26 -256 77 -310 106 -10 5 -23 9 -29 9 -13 0 -203 93 -289 141 -163 92 -358 242 -433 335 -53 66 -60 75 -101 160 -16 32 -33 68 -39 78 -14 28 -21 140 -10 160 5 9 24 27 43 41 l35 24 2425 0 c2398 1 2425 1 2458 -19z"/>
 <path d="M411 2845 c-73 -21 -106 -42 -139 -90 l-27 -40 0 -586 0 -585 27 -41 c73 -111 301 -137 408 -47 57 49 65 74 70 243 l5 154 190 -203 c115 -123 206 -211 230 -224 57 -30 183 -29 241 1 77 41 134 127 134 203 0 61 -34 123 -108 202 -38 40 -112 120 -165 177 l-95 105 36 42 c20 23 96 107 168 186 175 191 193 229 158 330 -38 107 -144 178 -264 178 -104 0 -106 -2 -447 -375 l-82 -90 -1 152 c0 83 -4 163 -9 176 -39 103 -201 168 -330 132z m201 -67 c14 -8 39 -29 55 -48 l28 -34 5 -225 5 -225 35 44 c19 25 50 61 70 81 19 20 62 66 95 103 162 182 275 300 302 314 28 16 91 15 150 0 88 -24 167 -135 148 -210 -7 -26 -81 -122 -150 -194 -22 -22 -69 -74 -105 -115 -36 -40 -82 -90 -102 -111 -21 -20 -38 -41 -38 -45 0 -4 17 -24 38 -44 20 -19 73 -75 117 -124 44 -48 110 -119 147 -158 103 -107 114 -175 42 -261 -51 -61 -112 -82 -205 -70 -42 6 -56 15 -126 84 -43 42 -112 114 -153 160 -41 46 -100 109 -130 141 -30 32 -73 78 -95 101 l-40 43 -5 -211 -5 -211 -29 -41 c-34 -50 -76 -65 -181 -66 -58 0 -77 4 -102 22 -17 12 -35 22 -40 22 -4 0 -17 13 -28 28 -19 26 -20 45 -23 572 -2 372 0 557 8 582 13 46 56 98 80 98 10 0 22 5 26 11 9 16 171 5 206 -13z"/>
 <path d="M1775 2854 c-92 -23 -168 -82 -185 -144 -6 -21 -10 -257 -10 -590 0 -521 2 -558 19 -596 35 -77 125 -124 237 -124 76 0 159 29 197 68 58 60 57 51 57 662 0 450 -3 567 -14 593 -18 44 -63 86 -116 109 -44 19 -147 31 -185 22z m135 -61 c38 -9 65 -24 90 -48 l35 -35 3 -570 3 -571 -31 -43 c-40 -55 -68 -68 -157 -72 -85 -4 -123 6 -165 41 -60 51 -58 27 -55 646 l2 569 32 32 c33 32 117 66 163 65 14 0 50 -6 80 -14z"/>
 <path d="M2375 2847 c-89 -30 -133 -65 -160 -129 -13 -32 -15 -114 -15 -593 0 -603 -1 -592 56 -649 49 -48 102 -69 187 -74 71 -4 82 -2 141 27 58 29 76 47 247 251 l184 220 5 -183 c3 -111 10 -190 17 -202 50 -86 180 -137 290 -115 107 22 171 71 193 148 8 25 10 216 8 592 l-3 555 -30 45 c-45 67 -144 115 -234 114 -53 0 -77 -6 -121 -30 -48 -25 -78 -58 -240 -261 l-185 -232 -6 197 c-3 108 -6 198 -7 199 -27 38 -85 88 -121 104 -59 26 -154 33 -206 16z m168 -58 c28 -8 60 -27 80 -47 l32 -33 5 -267 5 -267 20 30 c20 32 32 46 65 83 11 12 20 26 20 32 0 5 9 15 20 22 11 7 20 17 20 23 0 5 17 29 38 53 20 23 46 54 57 68 11 15 27 34 35 43 8 9 43 52 77 96 112 145 161 179 253 178 75 0 160 -50 190 -109 20 -41 20 -54 20 -585 l-1 -544 -29 -39 c-78 -103 -258 -105 -351 -3 l-29 31 0 251 c-1 201 -3 246 -13 229 -7 -11 -20 -29 -30 -40 -75 -81 -117 -130 -117 -136 0 -4 -15 -23 -32 -42 -18 -19 -44 -49 -58 -67 -14 -17 -34 -42 -45 -55 -11 -12 -33 -40 -50 -60 -16 -21 -39 -47 -51 -58 -12 -12 -26 -31 -33 -44 -6 -12 -38 -35 -71 -52 -52 -26 -66 -29 -129 -25 -58 3 -79 9 -114 34 -78 53 -72 2 -72 629 0 310 3 566 8 569 4 2 7 12 7 21 0 29 64 75 130 93 34 9 85 5 143 -12z"/>
 </g>
<g id="layer4" fill="#eb2a2e" stroke="none">
 <path d="M2948 3925 c-163 -35 -278 -149 -323 -320 -56 -216 44 -441 237 -534 170 -81 410 -59 539 48 26 22 32 34 32 67 0 50 -24 87 -69 109 -37 17 -46 16 -156 -24 -65 -24 -104 -26 -180 -10 -184 40 -214 336 -43 427 19 10 56 16 99 16 63 0 71 -2 92 -27 35 -40 32 -67 -6 -67 -42 0 -96 -24 -109 -48 -14 -26 -14 -94 0 -125 20 -45 43 -50 204 -48 200 3 189 -9 193 201 3 150 2 162 -19 199 -66 118 -290 180 -491 136z"/>
 <path d="M333 3920 c-13 -5 -32 -24 -43 -42 -19 -31 -20 -50 -20 -393 0 -387 1 -390 53 -429 27 -20 41 -21 230 -21 201 0 202 0 260 28 76 38 117 96 124 176 7 75 -8 120 -57 167 l-39 38 44 38 c60 53 85 109 85 189 0 76 -22 131 -72 181 -69 68 -88 73 -328 75 -118 1 -225 -2 -237 -7z m311 -180 c34 -12 60 -55 60 -98 0 -26 -8 -41 -32 -63 -27 -25 -41 -29 -87 -29 l-55 0 0 93 c0 52 3 97 7 100 10 10 78 8 107 -3z m16 -380 c29 -29 34 -63 15 -99 -18 -36 -49 -51 -106 -51 l-39 0 0 85 0 85 55 0 c41 0 60 -5 75 -20z"/>
 <path d="M1245 3910 c-82 -27 -147 -77 -173 -134 -21 -44 -22 -59 -22 -364 0 -309 1 -319 21 -341 41 -44 126 -55 189 -23 58 29 60 38 60 349 l0 282 26 20 c15 12 41 21 59 21 18 0 44 -9 59 -21 l26 -20 0 -290 0 -289 29 -32 c28 -31 33 -33 99 -33 83 0 121 21 135 75 5 19 7 167 5 330 -3 281 -4 297 -25 336 -27 51 -66 84 -140 120 -51 24 -72 28 -173 31 -95 2 -126 0 -175 -17z"/>
 <path d="M1924 3920 c-54 -21 -54 -24 -54 -443 l0 -389 30 -29 30 -30 212 3 213 3 53 29 c92 51 142 135 142 237 0 85 -31 159 -86 208 l-46 40 74 93 c100 126 108 138 108 169 0 75 -139 147 -210 109 -10 -5 -72 -81 -137 -167 l-118 -157 -5 135 c-5 145 -10 158 -61 185 -31 15 -111 18 -145 4z m338 -539 c66 -73 13 -171 -92 -171 l-40 0 0 106 0 107 52 -5 c42 -4 57 -11 80 -37z"/>
 <path d="M3619 3915 c-56 -31 -59 -50 -59 -434 0 -396 2 -410 64 -436 41 -18 387 -22 430 -5 30 11 56 57 56 98 0 16 -10 44 -23 63 l-23 34 -117 3 -117 3 0 64 0 65 98 0 c109 1 123 7 147 64 20 46 7 95 -32 126 -22 17 -41 20 -119 20 l-94 0 0 70 0 70 113 0 c130 0 150 9 167 71 12 45 3 88 -27 121 -15 16 -36 18 -227 18 -163 -1 -217 -4 -237 -15z"/>
 <path d="M4238 3913 c-14 -9 -31 -27 -37 -40 -18 -38 -15 -745 3 -787 22 -53 48 -58 277 -54 202 3 205 3 251 30 64 38 116 102 134 165 29 100 -12 241 -86 293 -17 12 -30 24 -30 28 0 4 40 59 90 122 49 63 90 123 90 133 1 81 -132 154 -212 116 -13 -6 -77 -82 -143 -170 l-120 -160 -2 128 c-3 159 -6 169 -46 193 -41 25 -130 27 -169 3z m343 -519 c41 -42 41 -121 0 -158 -13 -12 -38 -19 -73 -20 l-53 -1 -3 104 -3 104 56 -5 c38 -3 63 -11 76 -24z"/>
 <path d="M4168 2805 c-275 -43 -460 -217 -539 -505 -19 -69 -16 -292 5 -369 71 -261 280 -448 556 -497 98 -17 183 -17 301 1 117 17 191 44 272 98 103 70 127 127 88 212 -23 51 -70 91 -121 105 -34 9 -50 7 -112 -15 -179 -65 -189 -67 -278 -62 -162 10 -251 68 -300 193 -19 47 -24 79 -24 159 -1 88 2 107 25 155 36 76 80 124 144 156 46 22 68 26 138 26 110 1 156 -19 176 -78 21 -61 12 -74 -54 -74 -110 0 -169 -55 -169 -160 -1 -65 24 -114 74 -147 32 -22 41 -23 256 -23 l222 0 30 25 c51 43 62 161 43 450 -6 102 -9 114 -39 157 -109 158 -398 239 -694 193z"/>
 <path d="M382 2775 c-43 -20 -56 -32 -72 -67 -19 -41 -20 -70 -20 -578 l0 -536 23 -44 c31 -62 93 -93 185 -93 38 1 83 8 103 17 40 17 86 65 94 99 3 12 5 111 3 220 -2 108 0 196 4 195 5 -2 108 -111 229 -243 122 -132 238 -250 258 -262 105 -65 252 -14 297 104 28 74 8 107 -198 329 -98 106 -178 195 -178 199 0 3 81 94 181 203 182 198 209 236 209 292 0 37 -29 97 -62 127 -35 33 -108 63 -153 63 -72 0 -118 -39 -356 -302 l-224 -247 -5 224 -5 224 -34 35 c-66 68 -184 85 -279 41z"/>
 <path d="M1722 2775 c-43 -20 -56 -32 -72 -67 -19 -41 -20 -70 -20 -573 0 -316 4 -544 10 -564 12 -43 45 -78 90 -98 47 -21 164 -21 211 0 46 20 86 68 94 110 3 18 5 275 3 572 -3 616 2 577 -93 621 -69 33 -152 32 -223 -1z"/>
 <path d="M2355 2781 c-22 -10 -51 -31 -65 -45 l-25 -28 -6 -286 c-4 -158 -7 -409 -8 -557 -1 -262 0 -272 22 -315 31 -62 97 -95 187 -94 110 1 121 10 377 317 l228 273 5 -241 c6 -272 9 -284 80 -324 50 -28 138 -38 198 -22 57 16 109 63 122 111 7 25 10 226 8 573 l-3 534 -27 35 c-60 78 -193 111 -277 69 -48 -25 -67 -46 -306 -350 l-200 -254 -5 259 c-6 297 -6 299 -95 340 -63 30 -152 32 -210 5z"/>
 </g>
<g id="layer5" fill="#f29530" stroke="none">
 <path d="M1940 4939 c-705 -38 -1144 -151 -1487 -381 -152 -102 -282 -255 -332 -390 -23 -64 -20 -85 16 -99 15 -5 994 -9 2456 -9 2295 0 2434 1 2467 18 48 24 51 62 10 143 -100 198 -237 327 -465 441 -295 148 -797 241 -1497 278 -222 11 -949 11 -1168 -1z"/>
 <path d="M180 1299 c-93 -37 -101 -123 -28 -279 99 -209 318 -396 678 -576 787 -395 2252 -458 3230 -141 506 165 929 506 1024 826 31 107 17 156 -51 172 -55 12 -4821 11 -4853 -2z"/>
 </g>

</svg>